#!OML:ASF H:\Terrain\Patient Classification 1\Terrain2\Thursday\justin.ASF
:FULLY-SPECIFIED
:DEGREES
1771
root -2.48554 23.8067 -0.0464023 378.493 -262.554 -341.976
lowerback 6.09082 0.556322 -0.482935
upperback 2.75364 0.842229 2.96333
thorax -0.629404 0.442996 3.26818
lowerneck -11.4753 -3.88329 -9.98923
upperneck 41.3146 -2.38596 4.71802
head 17.3278 -1.14474 3.78857
rclavicle -1.09332e-015 3.53837e-014
rhumerus -27.761 -11.833 -75.4467
rradius 26.9591
rwrist -9.86769
rhand -20.5845 13.3259
rfingers 7.12502
rthumb 5.77555 -16.5754
lclavicle -1.09332e-015 3.53837e-014
lhumerus -31.771 2.20688 80.3073
lradius 34.6016
lwrist 1.19061
lhand -22.6718 26.3411
lfingers 7.12502
lthumb 3.76001 56.2877
rfemur -14.2842 1.72521 20.3299
rtibia 40.7029
rfoot -25.4451 -3.27282
rtoes 4.66805
lfemur -8.55546 -5.8341 -15.3435
ltibia 25.1038
lfoot -7.64947 -19.7585
ltoes 39.1333
1772
root -2.48913 23.8151 -0.0596061 380.377 -263.236 -339.93
lowerback 6.24913 0.689585 -0.57586
upperback 2.80225 1.01695 2.98291
thorax -0.679627 0.530412 3.32796
lowerneck -11.4526 -3.85145 -10.01
upperneck 41.3271 -2.33055 4.69874
head 17.3231 -1.13023 3.79278
rclavicle 3.37934e-015 1.51076e-014
rhumerus -27.9965 -11.9831 -75.5572
rradius 26.8318
rwrist -9.77407
rhand -20.6719 13.4487
rfingers 7.12502
rthumb 5.69112 -16.4548
lclavicle 3.37934e-015 1.51076e-014
lhumerus -31.6083 2.57544 79.9913
lradius 34.7633
lwrist 1.33045
lhand -22.88 26.388
lfingers 7.12502
lthumb 3.55894 56.3381
rfemur -14.2314 1.11828 20.6724
rtibia 41.351
rfoot -25.8096 -2.52293
rtoes 8.44823
lfemur -8.3162 -5.682 -15.4258
ltibia 25.1966
lfoot -8.06562 -19.1868
ltoes 38.5535
1773
root -2.49732 23.8125 -0.0779587 383.849 -263.793 -336.567
lowerback 6.20051 0.831732 -0.395325
upperback 2.74066 1.21573 3.00352
thorax -0.725509 0.631193 3.23357
lowerneck -11.4067 -3.84997 -9.92321
upperneck 41.3271 -2.30524 4.55754
head 17.3039 -1.12593 3.71483
rclavicle 2.45499e-014 -1.51076e-014
rhumerus -28.232 -12.39 -75.5188
rradius 26.6023
rwrist -9.37542
rhand -20.3666 13.4659
rfingers 7.12502
rthumb 5.98593 -16.4295
lclavicle 2.45499e-014 -1.51076e-014
lhumerus -31.4365 2.7343 79.7696
lradius 34.905
lwrist 1.58521
lhand -22.8261 26.4013
lfingers 7.12502
lthumb 3.61107 56.3504
rfemur -14.4393 0.127598 21.2245
rtibia 41.7632
rfoot -25.5985 -2.38305
rtoes 8.6398
lfemur -8.47048 -5.45657 -15.3501
ltibia 25.3954
lfoot -8.33416 -18.6967
ltoes 38.1305
1774
root -2.50756 23.8092 -0.0938701 386.034 -264.364 -334.401
lowerback 6.29771 0.921331 -0.509135
upperback 2.68557 1.32922 3.01985
thorax -0.84575 0.687896 3.30485
lowerneck -11.3955 -3.79461 -9.7819
upperneck 41.4119 -2.17406 4.35295
head 17.3285 -1.07818 3.62106
rclavicle -1.2921e-014 -1.11319e-014
rhumerus -28.4243 -12.5135 -75.5564
rradius 26.3744
rwrist -9.14742
rhand -19.9687 13.3245
rfingers 7.12502
rthumb 6.37003 -16.5597
lclavicle -1.2921e-014 -1.11319e-014
lhumerus -31.3811 2.80066 79.5631
lradius 35.1411
lwrist 2.1914
lhand -23.0023 26.4116
lfingers 7.12502
lthumb 3.4409 56.3636
rfemur -14.5466 -1.00817 21.5879
rtibia 42.1936
rfoot -25.545 -1.95026
rtoes 8.80395
lfemur -8.48493 -6.30053 -15.3006
ltibia 25.5154
lfoot -7.67737 -18.1407
ltoes 42.8957
1775
root -2.50804 23.8477 -0.102603 382.208 -265.166 -338.135
lowerback 6.47234 0.920404 -1.34303
upperback 2.69096 1.27119 2.85315
thorax -0.946402 0.653297 3.6053
lowerneck -11.4747 -3.63116 -9.58937
upperneck 41.5124 -1.89693 4.16218
head 17.3678 -0.964777 3.54992
rclavicle -2.19657e-014 -3.18055e-015
rhumerus -28.5332 -12.4232 -75.8897
rradius 26.1676
rwrist -9.06452
rhand -20.0627 13.2259
rfingers 7.12502
rthumb 6.2793 -16.661
lclavicle -2.19657e-014 -3.18055e-015
lhumerus -31.4012 3.10977 79.1575
lradius 35.362
lwrist 2.5575
lhand -23.4827 26.5427
lfingers 7.12502
lthumb 2.97693 56.5017
rfemur -14.4875 -2.10098 21.2824
rtibia 42.6192
rfoot -25.773 -1.36464
rtoes 10.0469
lfemur -8.31532 -8.46288 -15.7542
ltibia 25.5658
lfoot -7.20761 -16.8734
ltoes 48.7866
1776
root -2.50273 23.8254 -0.116163 378.328 -265.816 -342.03
lowerback 6.35797 0.946942 -1.62935
upperback 2.69208 1.27613 2.49308
thorax -0.880088 0.651093 3.39488
lowerneck -11.5044 -3.53754 -9.33982
upperneck 41.5663 -1.84697 4.20203
head 17.3911 -0.903456 3.53413
rclavicle 1.39149e-014 2.8625e-014
rhumerus -28.796 -13.073 -76.2778
rradius 25.9037
rwrist -8.42452
rhand -20.2662 13.4615
rfingers 7.12502
rthumb 6.08284 -16.4311
lclavicle 1.39149e-014 2.8625e-014
lhumerus -31.3101 3.13272 78.6115
lradius 35.545
lwrist 2.67676
lhand -23.5632 26.7468
lfingers 7.12502
lthumb 2.89916 56.7068
rfemur -14.6166 -3.51741 21.1115
rtibia 42.9917
rfoot -25.6839 -1.47703
rtoes 8.00793
lfemur -8.21111 -6.13747 -16.7023
ltibia 25.7171
lfoot -8.76156 -17.4138
ltoes 41.4495
1777
root -2.50056 23.7771 -0.13283 379.105 -266.273 -341.303
lowerback 6.15025 1.00196 -1.51667
upperback 2.71019 1.35174 2.35328
thorax -0.746031 0.686979 3.18432
lowerneck -11.4959 -3.49287 -9.26104
upperneck 41.5888 -1.83175 4.26641
head 17.397 -0.87782 3.55328
rclavicle -3.37934e-015 -1.39149e-014
rhumerus -29.0143 -13.6918 -76.428
rradius 25.6367
rwrist -7.81592
rhand -20.232 13.6484
rfingers 7.12502
rthumb 6.11582 -16.2433
lclavicle -3.37934e-015 -1.39149e-014
lhumerus -31.1626 3.17266 78.3454
lradius 35.7195
lwrist 3.04311
lhand -23.6069 26.8353
lfingers 7.12502
lthumb 2.85698 56.7959
rfemur -14.6351 -4.06743 21.192
rtibia 43.4033
rfoot -25.9279 0.105428
rtoes 12.9476
lfemur -8.35503 -3.2021 -17.2353
ltibia 25.6791
lfoot -10.7191 -17.9127
ltoes 27.7584
1778
root -2.49577 23.8357 -0.148992 380.63 -266.688 -339.846
lowerback 6.00924 1.0192 -1.68876
upperback 2.72582 1.3674 2.46084
thorax -0.65867 0.692061 3.39439
lowerneck -11.545 -3.41239 -9.37447
upperneck 41.6581 -1.63754 4.19894
head 17.4331 -0.82746 3.57977
rclavicle 2.48481e-015 1.15295e-014
rhumerus -29.0746 -13.8334 -76.3636
rradius 25.4176
rwrist -7.46166
rhand -19.8674 13.6995
rfingers 7.12502
rthumb 6.46787 -16.1817
lclavicle 2.48481e-015 1.15295e-014
lhumerus -31.0571 3.62213 78.3159
lradius 35.8387
lwrist 3.45095
lhand -23.9384 26.9238
lfingers 7.12502
lthumb 2.53682 56.8885
rfemur -14.7601 -5.67469 21.6645
rtibia 43.5602
rfoot -25.824 -1.52065
rtoes 3.06844
lfemur -7.75864 -5.87284 -16.9388
ltibia 25.6182
lfoot -9.77477 -16.7679
ltoes 39.0746
1779
root -2.49839 23.785 -0.155732 382.934 -267.206 -337.596
lowerback 5.89429 1.01793 -2.02372
upperback 2.72179 1.35072 2.62175
thorax -0.608114 0.680097 3.75379
lowerneck -11.5895 -3.2996 -9.49798
upperneck 41.776 -1.34874 4.04367
head 17.4871 -0.752459 3.58607
rclavicle 2.78299e-015 -1.98785e-015
rhumerus -29.1224 -13.5173 -76.373
rradius 25.2383
rwrist -7.28033
rhand -19.4427 13.7714
rfingers 7.12502
rthumb 6.87786 -16.0968
lclavicle 2.78299e-015 -1.98785e-015
lhumerus -31.1194 4.42939 78.2406
lradius 35.9844
lwrist 3.50604
lhand -24.0385 26.8926
lfingers 7.12502
lthumb 2.44019 56.8584
rfemur -14.793 -6.33171 21.8652
rtibia 43.6884
rfoot -25.8361 -0.814068
rtoes 3.23438
lfemur -8.107 -4.08279 -17.2862
ltibia 25.613
lfoot -10.1492 -17.0253
ltoes 33.9995
1780
root -2.49059 23.7768 -0.15842 389.083 -267.744 -331.528
lowerback 5.70608 0.980369 -2.25114
upperback 2.72173 1.29268 2.78011
thorax -0.506501 0.647098 4.05403
lowerneck -11.7213 -3.1329 -9.54484
upperneck 41.8793 -0.979558 3.83838
head 17.545 -0.642357 3.56811
rclavicle -6.95746e-016 -3.18055e-015
rhumerus -29.174 -12.9856 -76.5753
rradius 25.1269
rwrist -7.28312
rhand -19.2516 13.9082
rfingers 7.12502
rthumb 7.06225 -15.954
lclavicle -6.95746e-016 -3.18055e-015
lhumerus -31.2315 5.28406 78.1034
lradius 36.1202
lwrist 3.5563
lhand -24.0746 26.7385
lfingers 7.12502
lthumb 2.40536 56.7047
rfemur -14.6779 -6.38868 22.0859
rtibia 43.6008
rfoot -25.9929 0.330767
rtoes 6.1518
lfemur -8.18952 -3.49144 -17.3424
ltibia 25.6562
lfoot -10.406 -16.8986
ltoes 32.5359
1781
root -2.48155 23.7611 -0.159624 398.276 -268.114 -322.498
lowerback 5.46708 0.983706 -2.28127
upperback 2.69068 1.29753 2.8468
thorax -0.40798 0.647051 4.14353
lowerneck -11.8756 -3.04467 -9.53927
upperneck 41.9534 -0.805638 3.76925
head 17.6109 -0.585498 3.5695
rclavicle -2.68359e-015 -1.11319e-014
rhumerus -29.3444 -13.2985 -76.6472
rradius 25.0483
rwrist -6.91286
rhand -19.1832 13.9728
rfingers 7.12502
rthumb 7.12835 -15.8871
lclavicle -2.68359e-015 -1.11319e-014
lhumerus -31.2055 5.49514 77.9686
lradius 36.2238
lwrist 4.0409
lhand -24.0013 26.8405
lfingers 7.12502
lthumb 2.47608 56.8059
rfemur -14.7457 -6.43479 22.4881
rtibia 43.5612
rfoot -26.2402 0.53889
rtoes 5.89384
lfemur -8.26956 -2.7484 -17.2874
ltibia 25.5276
lfoot -10.7428 -16.9309
ltoes 30.0954
1782
root -2.47695 23.7533 -0.162287 409.007 -268.363 -311.965
lowerback 5.29172 1.06251 -2.15765
upperback 2.59785 1.40614 2.78288
thorax -0.411752 0.702236 4.00217
lowerneck -11.849 -3.06338 -9.48117
upperneck 41.9267 -0.896463 3.84077
head 17.5949 -0.60525 3.5743
rclavicle 1.58034e-014 -2.38542e-015
rhumerus -29.6281 -13.8003 -76.7348
rradius 24.9789
rwrist -6.73031
rhand -19.0238 13.9119
rfingers 7.12502
rthumb 7.28218 -15.9428
lclavicle 1.58034e-014 -2.38542e-015
lhumerus -31.1824 5.46059 77.7789
lradius 36.3021
lwrist 4.37814
lhand -23.5339 26.5878
lfingers 7.12502
lthumb 2.92747 56.5474
rfemur -14.9464 -7.4293 23.0479
rtibia 43.3642
rfoot -26.0768 -0.981517
rtoes -2.34831
lfemur -8.43538 -2.07861 -17.241
ltibia 25.4682
lfoot -11.1366 -16.9536
ltoes 28.0412
